<svg version="1.1" id="Layer_1" xmlns="http://www.w3.org/2000/svg" xmlns:xlink="http://www.w3.org/1999/xlink" x="0px" y="0px"
	 viewBox="0 0 75 75" style="enable-background:new 0 0 75 75;" xml:space="preserve">
<g>
	<path d="M0,41.1l17.1,25.7c0,0,23.8-14.8,28.4-31.2l-5.9-7.5C33.9,28.9,11.2,32.6,0,41.1z"/>
	<path d="M75,13.7c-0.4-5.4-5.2-8.9-15.9-0.2c-4.2,3.4-14.2,11.4-17.3,13.8l5,6.4C68.4,21.9,75.3,19,75,13.7z M49.9,26
		c-0.7,0-1.3-0.5-1.3-1.1c0-0.6,0.6-1.1,1.3-1.1c0.7,0,1.3,0.5,1.3,1.1C51.1,25.5,50.6,26,49.9,26z M58.7,20c-0.7,0-1.3-0.5-1.3-1.1
		c0-0.6,0.6-1.1,1.3-1.1c0.7,0,1.3,0.5,1.3,1.1C59.9,19.5,59.4,20,58.7,20z M67.5,14.1c-0.7,0-1.3-0.5-1.3-1.1
		c0-0.6,0.6-1.1,1.3-1.1c0.7,0,1.3,0.5,1.3,1.1C68.7,13.6,68.2,14.1,67.5,14.1z"/>
</g>
</svg>
