<svg version="1.1" id="Layer_1" xmlns="http://www.w3.org/2000/svg" xmlns:xlink="http://www.w3.org/1999/xlink" x="0px" y="0px"
	 viewBox="0 0 75 75" style="enable-background:new 0 0 75 75;" xml:space="preserve">
<g>
	<path d="M74.7,48.1L63,28.4c-0.3-0.5-0.9-0.9-1.5-0.9c-0.6,0-1.2,0.3-1.5,0.9l-3.7,6.8l-1.1-1.9l3.5-9.1c0.2-0.6,0.8-2.1,1.2-3.5
		c0.2-0.5,0.3-1,0.3-1.5c0-0.1,0-0.2,0-0.3c0,0,0,0,0,0c0,0,0-0.1,0-0.1c0-3.1-2.5-5.6-5.6-5.6c-3,0-5.5,2.4-5.6,5.4
		c-1.1-0.5-2.2-0.7-3.4-0.7c-5.3,0-7.9,5.2-8,5.2c0-0.1-2.7-5.2-8-5.2c-1.2,0-2.4,0.3-3.4,0.7c-0.1-3-2.6-5.4-5.6-5.4
		c-3.1,0-5.6,2.5-5.6,5.6c0,0,0,0.1,0,0.1c0,0,0,0,0,0c0,0.1,0,0.2,0,0.3c0,0.5,0.2,1.1,0.3,1.5c0.4,1.4,1,2.9,1.2,3.5l3.5,9.1
		l-1.1,1.9L15,28.4c-0.3-0.5-0.9-0.9-1.5-0.9c-0.6,0-1.2,0.3-1.5,0.9L0.3,48.1c-0.3,0.5-0.4,1.2-0.1,1.8L5.1,59
		c0,0.2-0.1,0.3-0.1,0.5c0,1.3,1.1,2.4,2.4,2.4s2.4-1.1,2.4-2.4c0-1-0.6-1.8-1.5-2.2l-4.4-8.3l9.4-15.4l2.8,6.3l-5.8,10
		c-0.4,0.6-0.4,1.3,0,1.9l4.3,7c0,0.1,0,0.2,0,0.3c0,1.3,1.1,2.4,2.3,2.4c1.3,0,2.4-1.1,2.4-2.4c0-1-0.7-1.9-1.6-2.2l-3.7-6
		l7.7-12.3c0.1,0.5,0.2,1.1,0.4,1.6c1.6,5.7,4,7.9,7.1,7.9c1.8,0,4.7-1.9,4.9-5.7c0.4-5.3,6.4-5.3,6.8,0c0.3,3.8,3.1,5.7,4.9,5.7
		c3.2,0,5.5-2.2,7.1-7.9c0.1-0.5,0.3-1.1,0.4-1.6l7.7,12.3l-3.7,6c-0.9,0.3-1.6,1.2-1.6,2.2c0,1.3,1.1,2.4,2.4,2.4
		c1.3,0,2.3-1.1,2.3-2.4c0-0.1,0-0.2,0-0.3l4.3-7c0.4-0.6,0.4-1.3,0-1.9l-5.8-10l2.8-6.3l9.4,15.4l-4.4,8.3
		c-0.9,0.3-1.5,1.2-1.5,2.2c0,1.3,1.1,2.4,2.4,2.4s2.4-1.1,2.4-2.4c0-0.2,0-0.3-0.1-0.5l4.9-9.2C75.1,49.3,75.1,48.6,74.7,48.1z
		 M20.4,22.7c-1.9,0-3.4-1.5-3.4-3.4s1.5-3.4,3.4-3.4c1.9,0,3.4,1.5,3.4,3.4S22.3,22.7,20.4,22.7z M29.5,34.5
		c-3.8,0-6.8-3.1-6.8-6.8c0-3.8,3.1-6.8,6.8-6.8c3.8,0,6.8,3.1,6.8,6.8C36.3,31.4,33.3,34.5,29.5,34.5z M45.5,34.5
		c-3.8,0-6.8-3.1-6.8-6.8c0-3.8,3.1-6.8,6.8-6.8c3.8,0,6.8,3.1,6.8,6.8C52.3,31.4,49.2,34.5,45.5,34.5z M51.2,19.3
		c0-1.9,1.5-3.4,3.4-3.4s3.4,1.5,3.4,3.4s-1.5,3.4-3.4,3.4S51.2,21.2,51.2,19.3z"/>
	<ellipse cx="30.3" cy="24.5" rx="3" ry="1.2"/>
	<ellipse cx="46.2" cy="24.5" rx="3" ry="1.2"/>
</g>
</svg>
